<?xml version="1.0" encoding="UTF-8"?>
<svg xmlns="http://www.w3.org/2000/svg" viewBox="0 0 463.75 716">
  <defs>
    <style>
      .cls-1 {
        fill: #e1bd98;
      }

      .cls-2, .cls-3 {
        fill: #7a451c;
      }

      .cls-4 {
        fill: #be5e28;
      }

      .cls-3 {
        opacity: .21;
      }
    </style>
  </defs>
  <g id="Layer_4" data-name="Layer 4">
    <g>
      <path class="cls-4" d="M271.92,639.34c63.72,3.74,110.49,16.35,110.42,31.37-.08,18.03-67.58,32.7-150.76,32.78-83.18.08-150.55-14.47-150.46-32.5.08-17.94,66.9-32.55,149.5-32.78-.85,0-1.7,0-2.56,0-99.12.09-179.55,17.58-179.65,39.06-.1,21.48,80.17,38.82,179.29,38.72,99.12-.09,179.55-17.58,179.65-39.06.08-18.2-57.54-33.43-135.43-37.59Z"/>
      <path class="cls-4" d="M258.5,639c44.31,2.6,76.83,11.37,76.79,21.81-.06,12.54-47,22.74-104.84,22.8-57.85.05-104.69-10.06-104.63-22.6.06-12.47,46.52-22.64,103.96-22.79-.59,0-1.18,0-1.78,0-68.93.07-124.86,12.23-124.93,27.17-.07,14.94,55.75,26.99,124.68,26.93,68.93-.07,124.86-12.23,124.93-27.17.06-12.66-40.01-23.24-94.18-26.14Z"/>
      <path class="cls-4" d="M248.29,638.74c29.54,1.73,51.22,7.58,51.19,14.54-.04,8.36-31.33,15.16-69.89,15.2-38.56.04-69.79-6.71-69.76-15.07.04-8.31,31.02-15.09,69.31-15.2-.39,0-.79,0-1.18,0-45.95.04-83.24,8.15-83.29,18.11-.05,9.96,37.17,18,83.12,17.95,45.95-.04,83.24-8.15,83.29-18.11.04-8.44-26.67-15.5-62.79-17.43Z"/>
    </g>
  </g>
  <g id="Background">
    <g id="Layer_3" data-name="Layer 3">
      <path class="cls-2" d="M463.75,238.38c0,177.94-218.67,378.01-231.88,416.19C211,615.72-.32,416.32,0,238.38,0,106.73,103.81,0,231.88,0s231.88,106.73,231.88,238.38Z"/>
    </g>
  </g>
  <g id="Moon">
    <ellipse class="cls-1" cx="232.38" cy="227.48" rx="210.69" ry="213.27" transform="translate(-3.79 451.02) rotate(-87.82)"/>
    <path class="cls-3" d="M245.29,437.42c117.56-7.04,207.09-106.91,199.97-223.06-7.13-116.15-108.21-204.6-225.77-197.56C101.92,23.84,12.39,123.71,19.52,239.86c7.13,116.15,108.21,204.6,225.77,197.56ZM124.23,253.17c9.39-8.23,20.67-14.66,27.93-24.78,13.65-19.04,9.14-45.81-1.99-66.4-5.19-9.61-11.66-18.54-16.14-28.5-4.47-9.95-6.84-21.43-3.32-31.75,6.52-19.12,30.4-26.9,50.73-25.1,20.34,1.8,39.58,10.3,59.89,12.32,17.4,1.73,35.28-1.46,50.97-9.09,13.32-6.48,27.31-16.4,41.52-12.19,9.58,2.84,16.12,11.52,20.85,20.22,22.01,40.46,20.04,91.28,45.86,129.49,8.66,12.82,20.57,24.59,22.71,39.85,1.58,11.24-2.67,22.78-9.8,31.68-7.13,8.9-16.91,15.4-27.2,20.45-12.88,6.32-27.15,10.82-37.41,20.77-9.17,8.89-14.04,21.09-19.52,32.57-6.49,13.59-14.16,26.64-22.9,38.94-5.93,8.34-13.02,16.82-22.95,19.58-9.8,2.73-21.13-1.28-26.95-9.53-2.9-4.1-4.44-8.97-6.71-13.44-5-9.89-13.75-17.82-24.07-22.06,14.75,9.61,25.19,25.21,24.03,42.4,1.16-17.19-9.28-32.78-24.03-42.4-1.03-.42-2.05-.85-3.11-1.19,1.06.35,2.08.77,3.11,1.19-7.19-4.69-15.41-7.96-23.8-9.29-22.77-3.6-47.06,3.65-68.66-4.31-20.87-7.68-34.86-29.31-35.78-51.3-.92-21.99,10.06-43.56,26.73-58.16Z"/>
    <ellipse class="cls-4" cx="206.59" cy="43.7" rx="23.3" ry="9.04" transform="translate(-4.44 36.23) rotate(-9.92)"/>
    <path class="cls-2" d="M183.66,47.43c.05.27.14.54.25.8.24-4.72,9.41-9.99,21.38-12.1,11.96-2.1,22.42-.28,24.3,4.07.01-.28,0-.56-.04-.83-.89-4.91-11.88-7.09-24.56-4.86-12.67,2.23-22.23,8.01-21.34,12.93Z"/>
    <ellipse class="cls-4" cx="108.56" cy="89.73" rx="15.69" ry="5.67" transform="translate(-32.11 96.58) rotate(-42.36)"/>
    <path class="cls-2" d="M96.99,100.32c.32.34.78.53,1.3.65-.45-2.95,2.82-8.43,8.25-13.4,5.43-4.97,11.22-7.77,14.16-7.1-.08-.52-.24-.99-.56-1.33-2.14-2.29-9.06.6-15.45,6.45-6.39,5.85-9.83,12.45-7.69,14.73Z"/>
    <path class="cls-4" d="M225.88,147.23c-5.67,20.32-26.94,32.24-47.51,26.62-20.57-5.62-32.65-26.65-26.99-46.97,5.67-20.32,26.94-32.24,47.51-26.62,20.57,5.62,32.65,26.65,26.99,46.97Z"/>
    <path class="cls-2" d="M156.51,158.5c-3.28-7.81-4.06-16.78-1.58-25.66,5.78-20.71,26.98-32.98,47.36-27.41,9.15,2.5,16.55,8.18,21.44,15.54-4.37-10.41-13.21-18.74-24.86-21.92-20.38-5.57-41.59,6.71-47.36,27.41-3.18,11.41-.99,22.99,5.01,32.03Z"/>
    <ellipse class="cls-4" cx="368.45" cy="191.09" rx="8.97" ry="14.32" transform="translate(-35.74 96.72) rotate(-14.27)"/>
    <path class="cls-2" d="M375.42,189.48c1.9,7.24-.09,13.93-4.41,15.61.39-.01.78-.05,1.17-.13,4.88-1.12,7.2-8.26,5.18-15.93-2.02-7.67-7.61-12.98-12.48-11.85-.28.06-.51.21-.77.31,4.57-.12,9.46,4.92,11.31,11.99Z"/>
    <ellipse class="cls-4" cx="300.26" cy="181.3" rx="17.75" ry="20.8" transform="translate(-50.19 195.75) rotate(-33.49)"/>
    <path class="cls-2" d="M312.27,174.3c5.78,9.03,4.68,19.89-2.17,25.5.75-.29,1.49-.63,2.2-1.04,8.58-5.01,10.43-17.06,4.14-26.9-6.3-9.84-18.35-13.76-26.94-8.75-.71.41-1.35.89-1.97,1.4,8.34-3.26,18.96.76,24.74,9.79Z"/>
    <ellipse class="cls-4" cx="358.33" cy="99.25" rx="9.79" ry="13.51" transform="translate(43.45 296.99) rotate(-47.61)"/>
    <path class="cls-2" d="M364.16,93.3c5.19,4.8,6.68,11.51,3.69,15.54.25-.2.53-.36.76-.59,3.8-3.9,2.4-11.2-3.13-16.3-5.52-5.11-13.08-6.08-16.87-2.19-.23.23-.37.51-.56.77,3.97-3.12,10.92-2.03,16.12,2.77Z"/>
    <ellipse class="cls-4" cx="199.29" cy="401.66" rx="22.13" ry="46.69" transform="translate(-235.05 513.01) rotate(-77.99)"/>
    <path class="cls-2" d="M194.59,423.6c25.22,5.4,47.77.09,50.38-11.85.13-.59.17-1.18.19-1.78-4.3,10.72-25.84,15.28-49.81,10.15-23.98-5.13-41.69-18.09-41.13-29.61-.22.55-.44,1.11-.56,1.7-2.61,11.94,15.72,25.99,40.94,31.39Z"/>
    <ellipse class="cls-4" cx="94.02" cy="319.86" rx="25.77" ry="37.12" transform="translate(-149.87 92.55) rotate(-30.64)"/>
    <path class="cls-2" d="M71.07,332.8c10.28,17.8,28.66,26.55,41.06,19.54.55-.31,1.06-.68,1.57-1.05-12.33,5.36-29.53-3.35-39.35-20.36-9.82-17.01-8.67-36.09,2.26-43.88-.58.25-1.16.5-1.71.81-12.4,7.01-14.11,27.12-3.83,44.92Z"/>
    <ellipse class="cls-4" cx="402.97" cy="243.04" rx="34.17" ry="14.22" transform="translate(115.49 615.6) rotate(-83.44)"/>
    <ellipse class="cls-4" cx="58.25" cy="199.43" rx="27.91" ry="12.35" transform="translate(-147.52 228.12) rotate(-81.65)"/>
    <path class="cls-2" d="M54.03,227.1c.65.09,1.31.03,1.97-.1-5.66-2.87-8.49-14.92-6.39-28.74,2.1-13.82,8.42-24.61,14.7-25.84-.59-.3-1.21-.53-1.86-.62-6.88-.95-14.34,10.67-16.66,25.94-2.32,15.27,1.37,28.42,8.25,29.36Z"/>
    <ellipse class="cls-4" cx="314.02" cy="345.93" rx="54.38" ry="47.13" transform="translate(-139.71 234.58) rotate(-33.98)"/>
    <path class="cls-2" d="M337.98,377.59c-22.9,16.45-52.95,15.14-69.68-2.23.83,1.43,1.75,2.83,2.77,4.18,15.81,20.95,48.48,23.67,72.96,6.08,24.49-17.6,31.52-48.85,15.71-69.8-1.03-1.36-2.13-2.64-3.29-3.84,12.05,20.75,4.43,49.16-18.48,65.62Z"/>
    <path class="cls-2" d="M414.37,244.28c-2.07,17.34-8.97,31.06-15.95,32.49.56.25,1.13.44,1.73.51,7.56.82,15.51-13.78,17.75-32.61,2.25-18.83-2.06-34.75-9.62-35.57-.6-.06-1.2,0-1.8.12,6.47,2.89,9.96,17.73,7.89,35.07Z"/>
  </g>
</svg>