<svg xmlns="http://www.w3.org/2000/svg" viewBox="0 0 463.75 716"><defs><style>.cls-2{fill:#7a451c}.cls-3{fill:#be5e28}</style></defs><g id="Layer_4" data-name="Layer 4"><path d="M271.92 639.34c63.72 3.74 110.49 16.35 110.42 31.37-.08 18.03-67.58 32.7-150.76 32.78s-150.55-14.47-150.46-32.5c.08-17.94 66.9-32.55 149.5-32.78h-2.56c-99.12.09-179.55 17.58-179.65 39.06s80.17 38.82 179.29 38.72c99.12-.09 179.55-17.58 179.65-39.06.08-18.2-57.54-33.43-135.43-37.59" class="cls-3"/><path d="M258.5 639c44.31 2.6 76.83 11.37 76.79 21.81-.06 12.54-47 22.74-104.84 22.8-57.85.05-104.69-10.06-104.63-22.6.06-12.47 46.52-22.64 103.96-22.79H228c-68.93.07-124.86 12.23-124.93 27.17s55.75 26.99 124.68 26.93c68.93-.07 124.86-12.23 124.93-27.17.06-12.66-40.01-23.24-94.18-26.14Z" class="cls-3"/><path d="M248.29 638.74c29.54 1.73 51.22 7.58 51.19 14.54-.04 8.36-31.33 15.16-69.89 15.2s-69.79-6.71-69.76-15.07c.04-8.31 31.02-15.09 69.31-15.2h-1.18c-45.95.04-83.24 8.15-83.29 18.11s37.17 18 83.12 17.95c45.95-.04 83.24-8.15 83.29-18.11.04-8.44-26.67-15.5-62.79-17.43Z" class="cls-3"/></g><g id="Background"><path id="Layer_3" d="M463.75 238.38c0 177.94-218.67 378.01-231.88 416.19C211 615.72-.32 416.32 0 238.38 0 106.73 103.81 0 231.88 0s231.88 106.73 231.88 238.38Z" class="cls-2" data-name="Layer 3"/></g><g id="Moon"><ellipse cx="232.38" cy="227.48" rx="210.69" ry="213.27" style="fill:#e1bd98" transform="rotate(-87.82 232.363 227.479)"/><ellipse cx="206.59" cy="43.7" class="cls-3" rx="23.3" ry="9.04" transform="rotate(-9.92 206.514 43.695)"/><path d="M183.66 47.43c.05.27.14.54.25.8.24-4.72 9.41-9.99 21.38-12.1 11.96-2.1 22.42-.28 24.3 4.07.01-.28 0-.56-.04-.83-.89-4.91-11.88-7.09-24.56-4.86-12.67 2.23-22.23 8.01-21.34 12.93Z" class="cls-2"/><ellipse cx="108.56" cy="89.73" class="cls-3" rx="15.69" ry="5.67" transform="rotate(-42.36 108.573 89.725)"/><path d="M96.99 100.32c.32.34.78.53 1.3.65-.45-2.95 2.82-8.43 8.25-13.4s11.22-7.77 14.16-7.1c-.08-.52-.24-.99-.56-1.33-2.14-2.29-9.06.6-15.45 6.45S94.86 98.04 97 100.32Z" class="cls-2"/><path d="M225.88 147.23c-5.67 20.32-26.94 32.24-47.51 26.62s-32.65-26.65-26.99-46.97c5.67-20.32 26.94-32.24 47.51-26.62s32.65 26.65 26.99 46.97" class="cls-3"/><path d="M156.51 158.5c-3.28-7.81-4.06-16.78-1.58-25.66 5.78-20.71 26.98-32.98 47.36-27.41 9.15 2.5 16.55 8.18 21.44 15.54-4.37-10.41-13.21-18.74-24.86-21.92-20.38-5.57-41.59 6.71-47.36 27.41-3.18 11.41-.99 22.99 5.01 32.03Z" class="cls-2"/><ellipse cx="368.45" cy="191.09" class="cls-3" rx="8.97" ry="14.32" transform="rotate(-14.27 368.463 191.118)"/><path d="M375.42 189.48c1.9 7.24-.09 13.93-4.41 15.61.39-.01.78-.05 1.17-.13 4.88-1.12 7.2-8.26 5.18-15.93s-7.61-12.98-12.48-11.85c-.28.06-.51.21-.77.31 4.57-.12 9.46 4.92 11.31 11.99" class="cls-2"/><ellipse cx="300.26" cy="181.3" class="cls-3" rx="17.75" ry="20.8" transform="rotate(-33.49 300.21 181.283)"/><path d="M312.27 174.3c5.78 9.03 4.68 19.89-2.17 25.5.75-.29 1.49-.63 2.2-1.04 8.58-5.01 10.43-17.06 4.14-26.9-6.3-9.84-18.35-13.76-26.94-8.75-.71.41-1.35.89-1.97 1.4 8.34-3.26 18.96.76 24.74 9.79" class="cls-2"/><ellipse cx="358.33" cy="99.25" class="cls-3" rx="9.79" ry="13.51" transform="rotate(-47.61 358.329 99.25)"/><path d="M364.16 93.3c5.19 4.8 6.68 11.51 3.69 15.54.25-.2.53-.36.76-.59 3.8-3.9 2.4-11.2-3.13-16.3-5.52-5.11-13.08-6.08-16.87-2.19-.23.23-.37.51-.56.77 3.97-3.12 10.92-2.03 16.12 2.77Z" class="cls-2"/><ellipse cx="199.29" cy="401.66" class="cls-3" rx="22.13" ry="46.69" transform="rotate(-77.99 199.289 401.662)"/><path d="M194.59 423.6c25.22 5.4 47.77.09 50.38-11.85.13-.59.17-1.18.19-1.78-4.3 10.72-25.84 15.28-49.81 10.15-23.98-5.13-41.69-18.09-41.13-29.61-.22.55-.44 1.11-.56 1.7-2.61 11.94 15.72 25.99 40.94 31.39Z" class="cls-2"/><ellipse cx="94.02" cy="319.86" class="cls-3" rx="25.77" ry="37.12" transform="rotate(-30.64 93.986 319.816)"/><path d="M71.07 332.8c10.28 17.8 28.66 26.55 41.06 19.54.55-.31 1.06-.68 1.57-1.05-12.33 5.36-29.53-3.35-39.35-20.36s-8.67-36.09 2.26-43.88c-.58.25-1.16.5-1.71.81-12.4 7.01-14.11 27.12-3.83 44.92Z" class="cls-2"/><ellipse cx="402.97" cy="243.04" class="cls-3" rx="34.17" ry="14.22" transform="rotate(-83.44 402.97 243.034)"/><ellipse cx="58.25" cy="199.43" class="cls-3" rx="27.91" ry="12.35" transform="rotate(-81.65 58.263 199.436)"/><path d="M54.03 227.1c.65.09 1.31.03 1.97-.1-5.66-2.87-8.49-14.92-6.39-28.74s8.42-24.61 14.7-25.84c-.59-.3-1.21-.53-1.86-.62-6.88-.95-14.34 10.67-16.66 25.94s1.37 28.42 8.25 29.36Z" class="cls-2"/><ellipse cx="314.02" cy="345.93" class="cls-3" rx="54.38" ry="47.13" transform="rotate(-33.98 314.023 345.918)"/><path d="M337.98 377.59c-22.9 16.45-52.95 15.14-69.68-2.23.83 1.43 1.75 2.83 2.77 4.18 15.81 20.95 48.48 23.67 72.96 6.08 24.49-17.6 31.52-48.85 15.71-69.8a42 42 0 0 0-3.29-3.84c12.05 20.75 4.43 49.16-18.48 65.62Zm76.39-133.31c-2.07 17.34-8.97 31.06-15.95 32.49.56.25 1.13.44 1.73.51 7.56.82 15.51-13.78 17.75-32.61 2.25-18.83-2.06-34.75-9.62-35.57-.6-.06-1.2 0-1.8.12 6.47 2.89 9.96 17.73 7.89 35.07Z" class="cls-2"/></g></svg>